<svg height="32" viewBox="0 0 32 32" width="32" xmlns="http://www.w3.org/2000/svg"><path d="m19.23 29.6252-.46-1.9462a12.0032 12.0032 0 0 0 6.4612-19.3467l1.5376-1.2788a14.0029 14.0029 0 0 1 -7.5388 22.5717z" fill="#272425"/><path d="m23 6v-2h-5.0867a1.9906 1.9906 0 0 0 -1.9919 1.8188l-.6528 7.1812h-4.2686v2h4.0867l-1 11h-5.0867v2h5.0867a1.9906 1.9906 0 0 0 1.9919-1.8189l1.0166-11.1811h4.9048v-2h-4.7231l.6364-7z"/><path d="m5.2312 24.9465a14.0029 14.0029 0 0 1 7.5388-22.5717l.46 1.9462a12.0032 12.0032 0 0 0 -6.4612 19.3467z" fill="#272425"/><path d="m0 0h32v32h-32z" fill="none"/></svg>